<?xml version="1.0" standalone="no"?><!DOCTYPE svg PUBLIC "-//W3C//DTD SVG 1.1//EN" "http://www.w3.org/Graphics/SVG/1.1/DTD/svg11.dtd"><svg t="1688199727056" class="icon" viewBox="0 0 1024 1024" version="1.1" xmlns="http://www.w3.org/2000/svg" p-id="4430" xmlns:xlink="http://www.w3.org/1999/xlink" width="200" height="200"><path d="M418.133333 721.066667c-10.666667 0-21.333333-4.266667-29.866666-12.8-17.066667-17.066667-17.066667-42.666667 0-59.733334l322.133333-322.133333c17.066667-17.066667 42.666667-17.066667 59.733333 0 17.066667 17.066667 17.066667 42.666667 0 59.733333L448 708.266667c-8.533333 8.533333-19.2 12.8-29.866667 12.8z" fill="#29BF88" p-id="4431"></path><path d="M738.133333 721.066667c-10.666667 0-21.333333-4.266667-29.866666-12.8L386.133333 386.133333c-17.066667-17.066667-17.066667-42.666667 0-59.733333 17.066667-17.066667 42.666667-17.066667 59.733334 0l322.133333 320c17.066667 17.066667 17.066667 42.666667 0 59.733333-8.533333 10.666667-19.2 14.933333-29.866667 14.933334z" fill="#29BF88" p-id="4432"></path><path d="M352 718.933333c-10.666667 0-21.333333-4.266667-29.866667-12.8-17.066667-17.066667-17.066667-42.666667 0-59.733333l322.133334-322.133333c17.066667-17.066667 42.666667-17.066667 59.733333 0 17.066667 17.066667 17.066667 42.666667 0 59.733333L381.866667 706.133333c-8.533333 8.533333-19.2 12.8-29.866667 12.8z" fill="#034B2B" p-id="4433"></path><path d="M672 718.933333c-10.666667 0-21.333333-4.266667-29.866667-12.8L322.133333 384c-17.066667-17.066667-17.066667-42.666667 0-59.733333 17.066667-17.066667 42.666667-17.066667 59.733334 0L704 646.4c17.066667 17.066667 17.066667 42.666667 0 59.733333-8.533333 8.533333-21.333333 12.8-32 12.8z" fill="#034B2B" p-id="4434"></path><path d="M512 964.266667C262.4 964.266667 59.733333 761.6 59.733333 512S262.4 59.733333 512 59.733333 964.266667 262.4 964.266667 512 761.6 964.266667 512 964.266667z m0-819.2C309.333333 145.066667 145.066667 309.333333 145.066667 512S309.333333 878.933333 512 878.933333 878.933333 714.666667 878.933333 512 714.666667 145.066667 512 145.066667z" fill="#034B2B" p-id="4435"></path></svg>